# xmcd
#
# Track frame offsets:
#	150
#	17748
#	32376
#	54303
#	67391
#	79769
#	101510
#	115240
#	132444
#	149538
#	168167
#	185027
#	202114
#	221104
#	235016
#	253135
#	285249
#
# Disc length: 3818 seconds
#
# Revision: 1
# Processed by: cddbd v1.5.2PL0 Copyright (c) Steve Scherf et al.
# Submitted via: audiograbber 1.83.01
#
DISCID=fc0ee811
DTITLE=Chartbusters - Country 500 vol.1d.22
DYEAR=1900
DGENRE=Karaoke
TTITLE0=Tim McGraw and Faith Hill - It's your love
TTITLE1=Trace Adkins - I Left Something Turned on at Home
TTITLE2=Wynonna - Heaven Help My Heart
TTITLE3=Gary Allen - Her Man
TTITLE4=LeAnn Rimes - Cowboy's Sweetheart
TTITLE5=The Rayborn Brothers - Butterfly Kisses
TTITLE6=Lorrie Morgan - Go Away
TTITLE7=Tracy Byrd - Don't Take Her She's All I Got
TTITLE8=Martina McBride - A Broken Wing
TTITLE9=Chad Brock - Lightening Does The Work
TTITLE10=Lee Ann Womack - The Fool
TTITLE11=Shania Twain - Honey I'm Home
TTITLE12=Garth Brooks - It's Your Song
TTITLE13=Dixie Chicks - Let 'Er Rip
TTITLE14=Chris LeDoux - Life is a Highway
TTITLE15=Faith Hill w/ Tim McGraw - Just to Hear You Say that You Love Me
TTITLE16=Data - Track
EXTD=
EXTT0=
EXTT1=
EXTT2=
EXTT3=
EXTT4=
EXTT5=
EXTT6=
EXTT7=
EXTT8=
EXTT9=
EXTT10=
EXTT11=
EXTT12=
EXTT13=
EXTT14=
EXTT15=
EXTT16=
PLAYORDER=
